# xmcd CD database file
#
# Track frame offsets:
#	150
#	18225
#	31627
#	43587
#	58832
#	72907
#	96597
#	115047
#	130912
#	145212
#	161867
#	171480
#	181277
#	195272
#	207802
#	223007
#	242332
#	259762
#	275947
#	302807
#
# Disc length: 4394 seconds
#
# Revision: 1
# Processed by: cddbd v1.5.1PL0 Copyright (c) Steve Scherf et al.
# Submitted via: CDex 1.50
#
DISCID=28112814
DTITLE=Sky High - Freezin' Hot (Remastered)
DYEAR=1984
DGENRE=Blues
TTITLE0=I Ain't Beggin'
TTITLE1=Bidin' My Time
TTITLE2=You Got Me Hooked
TTITLE3=Go On Home
TTITLE4=Evil Eye
TTITLE5=I Want You
TTITLE6=I'll Play The Blues For You
TTITLE7=Back To The Woods
TTITLE8=Boogie For Peace
TTITLE9=Don't Turn Your Back On Me
TTITLE10=Stompin' At The Pits
TTITLE11=Treat Me Right
TTITLE12=Sommarvindar (Bonus)
TTITLE13=I'll Play The Blues For You (Bonus 1)
TTITLE14=Evil Eye (Bonus)
TTITLE15=I Want You (Bonus)
TTITLE16=Don't Turn Your Back On Me (Bonus)
TTITLE17=I Ain't Beggin' (Bonus 1)
TTITLE18=I'll Play The Blues For You (Bonus 2)
TTITLE19=I Ain't Beggin' (Bonus 2)
EXTD=YEAR: 1984
EXTT0=
EXTT1=
EXTT2=
EXTT3=
EXTT4=
EXTT5=
EXTT6=
EXTT7=
EXTT8=
EXTT9=
EXTT10=
EXTT11=
EXTT12=
EXTT13=
EXTT14=
EXTT15=
EXTT16=
EXTT17=
EXTT18=
EXTT19=
PLAYORDER=
